<?xml version="1.0" encoding="utf-8"?>
<!-- Generator: Adobe Illustrator 16.0.3, SVG Export Plug-In . SVG Version: 6.00 Build 0)  -->
<!DOCTYPE svg PUBLIC "-//W3C//DTD SVG 1.1//EN" "http://www.w3.org/Graphics/SVG/1.1/DTD/svg11.dtd">
<svg version="1.1" id="Layer_1" xmlns="http://www.w3.org/2000/svg" xmlns:xlink="http://www.w3.org/1999/xlink" x="0px" y="0px"
	 width="702.916px" height="194.565px" viewBox="-24.38 -266.854 702.916 194.565"
	 enable-background="new -24.38 -266.854 702.916 194.565" xml:space="preserve">
<title>logo-bitcoin-academy</title>
<g>
	<path fill="#FFFFFF" d="M41.206-213.188v-0.262c7.369-3.794,11.883-11.503,11.586-19.785c0.316-8.808-4.653-16.95-12.627-20.698
		c-5.113-2.091-10.625-3.023-16.142-2.732h-3.425v-7.519c0-1.477-1.196-2.67-2.67-2.67h-7.68c-1.475,0-2.67,1.193-2.67,2.67v7.519
		h-8.621v-7.519c0-1.477-1.196-2.67-2.671-2.67h-7.679c-1.475,0-2.671,1.193-2.671,2.67v7.519h-7.862
		c-0.926,0-1.676,0.75-1.676,1.676v7.322c0,0.926,0.75,1.676,1.676,1.676h7.862v70.534l-7.417-0.004
		c-1.185-0.001-2.146,0.96-2.147,2.146c0,0.003,0,0.005,0,0.009l0.019,6.407c0.003,1.184,0.963,2.141,2.146,2.141h7.399v7.406
		c0,1.477,1.195,2.672,2.67,2.672l0,0h7.68c1.475,0,2.67-1.195,2.67-2.672l0,0v-7.406h8.621v7.406c0,1.476,1.195,2.671,2.67,2.671
		l0,0h7.68c1.475,0,2.67-1.195,2.67-2.671l0,0v-7.406h5.119c4.661,0.185,9.32-0.388,13.798-1.692
		c10.342-3.637,17.172-13.514,16.923-24.474C56.437-201.343,51.1-210.325,41.206-213.188z M24.023-245.992
		c3.267-0.152,6.524,0.472,9.502,1.822c4.045,2.649,6.337,7.283,5.988,12.105c0,8.332-5.207,14.06-13.538,14.06h-27.02v-27.987
		H24.023L24.023-245.992z M34.438-176.74c-2.627,0.948-5.41,1.393-8.202,1.305l-27.28-0.018v-31.87l28.321-0.009
		c9.633,0,15.881,6.249,15.881,15.752C43.159-184.679,39.773-178.952,34.438-176.74L34.438-176.74z"/>
	<path fill="#FFFFFF" d="M75.164-247.967v-4.247c-0.293-2.053,1.133-3.954,3.186-4.248c0.352-0.051,0.71-0.051,1.062,0h4.376
		c2.086-0.26,3.988,1.222,4.247,3.311c0.039,0.312,0.039,0.627,0,0.938v4.247c0.225,2.121-1.313,4.022-3.435,4.246
		c-0.27,0.029-0.542,0.029-0.812,0h-4.376c-2.086,0.261-3.988-1.22-4.248-3.306C75.125-247.339,75.125-247.656,75.164-247.967z
		 M75.292-226.474c-0.26-2.086,1.222-3.987,3.308-4.247c0.312-0.039,0.627-0.039,0.939,0h3.99c2.053-0.293,3.954,1.134,4.247,3.187
		c0.05,0.354,0.05,0.709,0,1.062v56.63c0.293,2.053-1.133,3.954-3.186,4.247c-0.352,0.05-0.709,0.05-1.062,0h-3.99
		c-2.086,0.259-3.988-1.223-4.247-3.309c-0.039-0.312-0.039-0.63,0-0.938L75.292-226.474L75.292-226.474z"/>
	<path fill="#FFFFFF" d="M108.884-219.91h-4.505c-2.07,0.211-3.92-1.296-4.132-3.365c-0.03-0.295-0.025-0.59,0.014-0.882v-1.673
		c-0.26-2.086,1.221-3.986,3.307-4.247c0.312-0.039,0.628-0.039,0.94,0h4.633v-14.286c-0.26-2.086,1.221-3.986,3.308-4.245
		c0.312-0.039,0.627-0.039,0.939,0h3.732c2.052-0.293,3.954,1.133,4.247,3.185c0.05,0.353,0.05,0.711,0,1.062v14.286h11.326
		c2.086-0.259,3.988,1.223,4.248,3.31c0.039,0.312,0.039,0.628,0,0.938v1.673c0.273,2.064-1.178,3.959-3.242,4.233
		c-0.291,0.039-0.585,0.043-0.877,0.013h-11.454v28.958c0,12.355,7.593,14.285,12.355,14.673c3.346,0.259,4.504,1.286,4.504,4.246
		v2.703c0,2.96-1.673,4.247-5.148,4.247c-12.87,0-24.196-7.465-24.196-23.938L108.884-219.91L108.884-219.91z"/>
	<path fill="#FFFFFF" d="M179.668-232.265c7.742-0.167,15.313,2.281,21.493,6.95c1.766,1.031,2.359,3.3,1.326,5.064
		c-0.152,0.266-0.34,0.508-0.555,0.728l-1.287,1.931c-1.545,2.316-3.346,2.445-5.791,1.029c-4.213-3.118-9.303-4.829-14.543-4.893
		c-13.129,0-22.652,9.782-22.652,23.166c0,13.257,9.523,23.425,22.909,23.425c6.034-0.095,11.87-2.176,16.603-5.921
		c1.457-1.372,3.75-1.303,5.121,0.154c0.277,0.295,0.504,0.635,0.67,1.004l1.029,1.933c1.275,1.728,0.91,4.158-0.814,5.438
		c-0.111,0.081-0.225,0.156-0.344,0.226c-6.566,5.264-14.753,8.081-23.166,7.979c-20.464,0-34.75-14.542-34.75-34.106
		C144.918-217.465,159.333-232.265,179.668-232.265z"/>
	<path fill="#FFFFFF" d="M247.491-232.265c19.436,0,35.137,14.286,35.137,33.977c0,19.821-15.701,34.235-35.137,34.235
		c-19.434,0-35.006-14.414-35.006-34.235C212.485-217.979,228.058-232.265,247.491-232.265z M247.491-174.865
		c12.355,0,22.395-9.779,22.395-23.424c0.418-12.368-9.27-22.731-21.637-23.149s-22.732,9.27-23.15,21.638
		c-0.018,0.505-0.018,1.01,0,1.515c-0.469,12.46,9.252,22.94,21.711,23.408C247.036-174.871,247.265-174.866,247.491-174.865z"/>
	<path fill="#FFFFFF" d="M296.267-247.967v-4.247c-0.293-2.053,1.133-3.954,3.186-4.248c0.354-0.051,0.711-0.051,1.062,0h4.377
		c2.086-0.26,3.986,1.222,4.246,3.311c0.039,0.312,0.039,0.627,0,0.938v4.247c0.227,2.121-1.312,4.022-3.436,4.246
		c-0.271,0.028-0.541,0.028-0.812,0h-4.377c-2.086,0.261-3.986-1.221-4.246-3.307C296.228-247.34,296.228-247.656,296.267-247.967z
		 M296.396-226.474c-0.26-2.086,1.221-3.987,3.309-4.247c0.311-0.039,0.627-0.039,0.938,0h3.99c2.053-0.293,3.955,1.134,4.248,3.187
		c0.049,0.354,0.049,0.709,0,1.062v56.63c0.293,2.053-1.135,3.954-3.188,4.247c-0.352,0.05-0.709,0.05-1.061,0h-3.99
		c-2.086,0.259-3.988-1.223-4.248-3.309c-0.039-0.312-0.039-0.63,0-0.938v-56.631L296.396-226.474L296.396-226.474z"/>
	<path fill="#FFFFFF" d="M326.897-226.474c-0.262-2.086,1.22-3.987,3.308-4.248c0.311-0.039,0.627-0.039,0.938,0h3.605
		c2.053-0.293,3.953,1.134,4.246,3.187c0.051,0.354,0.051,0.709,0,1.062v5.792c-0.014,1.253-0.145,2.503-0.387,3.73h0.258
		c4.553-9.479,14.193-15.458,24.71-15.313c15.311,0,22.266,8.366,22.266,24.969v37.453c0.293,2.053-1.133,3.954-3.186,4.247
		c-0.355,0.05-0.711,0.05-1.062,0h-3.99c-2.086,0.259-3.986-1.223-4.246-3.311c-0.039-0.312-0.039-0.628,0-0.938v-34.621
		c0-9.139-1.803-16.346-12.227-16.346c-12.615,0-21.75,10.554-21.75,24.065v26.898c0.293,2.053-1.135,3.954-3.188,4.247
		c-0.354,0.05-0.709,0.05-1.062,0h-3.99c-2.086,0.259-3.984-1.225-4.246-3.311c-0.037-0.312-0.037-0.628,0-0.938L326.897-226.474z"
		/>
	<path fill="#FFFFFF" d="M401.925-174.865c-0.293-2.053,1.133-3.952,3.188-4.246c0.354-0.052,0.709-0.052,1.061,0h4.895
		c2.053-0.295,3.949,1.135,4.242,3.188c0.055,0.352,0.055,0.71,0,1.062v5.021c0.293,2.052-1.133,3.953-3.186,4.247
		c-0.352,0.05-0.709,0.05-1.062,0h-4.891c-2.053,0.293-3.953-1.134-4.246-3.188c-0.051-0.353-0.051-0.71,0-1.062V-174.865
		L401.925-174.865z"/>
	<path fill="#FFFFFF" d="M462.8-232.265c7.742-0.167,15.312,2.281,21.492,6.95c1.766,1.031,2.359,3.3,1.328,5.064
		c-0.154,0.266-0.342,0.508-0.559,0.728l-1.285,1.931c-1.547,2.316-3.348,2.445-5.791,1.029c-4.215-3.118-9.305-4.829-14.543-4.893
		c-13.131,0-22.65,9.782-22.65,23.166c0,13.257,9.52,23.425,22.908,23.425c6.033-0.095,11.869-2.176,16.602-5.921
		c1.457-1.372,3.75-1.303,5.123,0.154c0.277,0.295,0.504,0.635,0.67,1.004l1.029,1.933c1.275,1.728,0.91,4.158-0.816,5.438
		c-0.107,0.081-0.225,0.156-0.342,0.226c-6.564,5.264-14.754,8.081-23.166,7.979c-20.465,0-34.75-14.542-34.75-34.106
		C428.05-217.465,442.464-232.265,462.8-232.265z"/>
	<path fill="#FFFFFF" d="M530.623-232.265c19.436,0,35.135,14.286,35.135,33.977c0,19.821-15.701,34.235-35.135,34.235
		s-35.008-14.414-35.008-34.235C495.617-217.979,511.189-232.265,530.623-232.265z M530.623-174.865
		c12.355,0,22.395-9.779,22.395-23.424c0.418-12.368-9.27-22.731-21.639-23.149c-12.367-0.418-22.729,9.271-23.15,21.638
		c-0.016,0.505-0.016,1.01,0,1.514c-0.469,12.46,9.256,22.94,21.717,23.408C530.167-174.871,530.396-174.866,530.623-174.865z"/>
	<path fill="#FFFFFF" d="M579.527-226.474c-0.26-2.086,1.223-3.987,3.309-4.248c0.311-0.039,0.627-0.039,0.939,0h3.604
		c2.053-0.293,3.953,1.134,4.246,3.187c0.051,0.354,0.051,0.709,0,1.062v5.792c-0.014,1.253-0.143,2.503-0.387,3.73h0.258
		c4.074-8.956,12.824-14.872,22.652-15.313c10.939,0,17.246,5.02,19.562,14.801h0.258c4.307-8.854,13.193-14.562,23.037-14.801
		c14.801,0,21.492,8.366,21.492,24.969v37.453c0.293,2.053-1.133,3.954-3.189,4.247c-0.354,0.05-0.711,0.05-1.061,0h-3.99
		c-2.086,0.259-3.986-1.223-4.246-3.311c-0.039-0.312-0.039-0.628,0-0.938v-34.75c0-9.139-1.803-16.346-11.455-16.346
		c-12.098,0-19.305,12.482-19.305,24.969v26.127c0.309,2.027-1.086,3.923-3.115,4.229c-0.332,0.053-0.67,0.059-1.004,0.019h-4.117
		c-2.037,0.244-3.889-1.207-4.135-3.244c-0.041-0.333-0.035-0.671,0.016-1.003v-34.75c0-8.494-1.285-16.346-11.322-16.346
		c-12.355,0-19.562,12.871-19.562,24.969v26.127c0.293,2.053-1.135,3.954-3.188,4.247c-0.354,0.05-0.709,0.05-1.062,0h-3.988
		c-2.086,0.259-3.984-1.223-4.246-3.311c-0.039-0.312-0.039-0.628,0-0.938V-226.474L579.527-226.474L579.527-226.474z"/>
	
		<linearGradient id="SVGID_1_" gradientUnits="userSpaceOnUse" x1="-368.2915" y1="-143.2576" x2="-55.2983" y2="-143.2576" gradientTransform="matrix(2.2442 0 0 2.2442 802.1404 184.6616)">
		<stop  offset="0" style="stop-color:#FFFFFF;stop-opacity:0"/>
		<stop  offset="0.4833" style="stop-color:#FFFFFF"/>
		<stop  offset="1" style="stop-color:#CCCCCC;stop-opacity:0"/>
	</linearGradient>
	<rect x="-24.38" y="-137.959" fill="url(#SVGID_1_)" width="702.418" height="2.244"/>
</g>
<g>
	<path fill="#FFFFFF" d="M12.928-107.014c0-1.115,0.558-1.673,1.673-1.673H25.45c6.033,0,10.342,3.346,10.342,9.125
		c0,3.498-1.673,6.286-4.411,7.705v0.102c3.751,1.115,5.881,4.665,5.881,8.669c0,6.742-5.221,10.189-11.559,10.189H14.601
		c-1.115,0-1.673-0.56-1.673-1.672V-107.014z M25.449-93.632c3.245,0,5.272-2.281,5.272-5.424c0-3.146-1.977-5.272-5.374-5.272
		h-7.452v10.696H25.449z M25.957-77.257c3.853,0,6.185-2.434,6.185-6.083c0-3.65-2.434-6.135-6.185-6.135h-8.061v12.218H25.957z"/>
	<path fill="#FFFFFF" d="M73.604-107.319c0.304-0.965,0.913-1.368,1.875-1.368h2.433c0.913,0,1.571,0.403,1.876,1.368l11.76,32.493
		c0.406,1.166-0.152,1.929-1.368,1.929h-1.724c-0.963,0-1.572-0.456-1.876-1.368l-3.193-8.923H69.903l-3.143,8.923
		c-0.254,0.912-0.913,1.368-1.825,1.368h-1.724c-1.267,0-1.774-0.763-1.368-1.929L73.604-107.319z M82.07-87.345L78.116-98.7
		c-0.609-1.822-1.369-5.066-1.369-5.066h-0.101c0,0-0.812,3.244-1.419,5.066l-4.005,11.355H82.07z"/>
	<path fill="#FFFFFF" d="M116.436-78.321l0.862-1.219c0.609-0.811,1.318-0.912,2.282-0.305c1.267,0.913,4.004,2.89,7.806,2.89
		c3.802,0,6.287-2.025,6.287-5.119c0-7.906-17.237-6.135-17.237-17.285c0-6.033,5.07-9.938,11.61-9.938
		c4.257,0,7.604,1.673,8.973,2.737c0.861,0.606,0.963,1.368,0.506,2.281l-0.709,1.268c-0.609,1.063-1.419,0.963-2.281,0.456
		c-1.37-0.812-3.55-2.078-6.591-2.078c-3.7,0-6.438,1.927-6.438,5.019c0,7.706,17.236,5.629,17.236,17.137
		c0,5.627-4.207,10.188-11.355,10.188c-5.17,0-9.125-2.382-10.747-3.7C115.979-76.597,115.675-77.307,116.436-78.321z"/>
	<path fill="#FFFFFF" d="M166.77-107.014c0-1.115,0.559-1.673,1.674-1.673h1.622c1.116,0,1.674,0.558,1.674,1.673v32.445
		c0,1.112-0.558,1.672-1.674,1.672h-1.622c-1.115,0-1.674-0.56-1.674-1.672V-107.014z"/>
	<path fill="#FFFFFF" d="M218.122-109.296c6.135,0,10.088,2.382,11.863,3.7c0.812,0.608,0.861,1.42,0.303,2.332l-0.658,1.015
		c-0.609,0.912-1.367,1.015-2.332,0.405c-1.521-1.015-4.664-2.839-8.973-2.839c-8.314,0-13.232,6.083-13.232,13.637
		c0,7.604,5.02,14.146,13.283,14.146c4.715,0,8.162-2.28,9.732-3.498c0.863-0.658,1.674-0.658,2.334,0.201l0.76,1.017
		c0.607,0.811,0.557,1.622-0.254,2.331c-1.824,1.521-6.188,4.562-12.725,4.562c-11.051,0-18.301-8.213-18.301-18.706
		C199.923-101.387,207.425-109.296,218.122-109.296z"/>
	<path fill="#FFFFFF" d="M257.456-78.321l0.861-1.219c0.609-0.811,1.318-0.912,2.281-0.305c1.268,0.913,4.004,2.89,7.807,2.89
		c3.803,0,6.285-2.025,6.285-5.119c0-7.906-17.234-6.135-17.234-17.285c0-6.033,5.068-9.938,11.609-9.938
		c4.258,0,7.604,1.673,8.973,2.737c0.861,0.606,0.963,1.368,0.506,2.281l-0.709,1.268c-0.609,1.063-1.42,0.963-2.281,0.456
		c-1.369-0.812-3.549-2.078-6.59-2.078c-3.701,0-6.439,1.927-6.439,5.019c0,7.706,17.236,5.629,17.236,17.137
		c0,5.627-4.207,10.188-11.355,10.188c-5.17,0-9.125-2.382-10.746-3.7C256.999-76.597,256.694-77.307,257.456-78.321z"/>
	<path fill="#FFFFFF" d="M357.72-109.296c6.137,0,10.088,2.382,11.863,3.7c0.811,0.608,0.861,1.42,0.303,2.332l-0.656,1.015
		c-0.609,0.912-1.367,1.015-2.332,0.405c-1.521-1.015-4.664-2.839-8.975-2.839c-8.313,0-13.231,6.083-13.231,13.637
		c0,7.604,5.02,14.146,13.28,14.146c4.717,0,8.164-2.28,9.734-3.498c0.863-0.658,1.674-0.658,2.334,0.201l0.758,1.017
		c0.609,0.811,0.561,1.622-0.252,2.331c-1.824,1.521-6.186,4.562-12.725,4.562c-11.049,0-18.299-8.213-18.299-18.706
		C339.522-101.387,347.024-109.296,357.72-109.296z"/>
	<path fill="#FFFFFF" d="M414.392-109.296c10.646,0,18.354,7.959,18.354,18.25c0,10.544-7.707,18.757-18.354,18.757
		c-10.645,0-18.4-8.213-18.4-18.757C395.99-101.337,403.746-109.296,414.392-109.296z M414.392-76.902
		c7.605,0,13.182-6.136,13.182-14.146c0-7.757-5.576-13.637-13.182-13.637c-7.604,0-13.23,5.88-13.23,13.637
		C401.16-83.036,406.787-76.902,414.392-76.902z"/>
	<path fill="#FFFFFF" d="M460.416-107.014c0-1.115,0.609-1.673,1.674-1.673h1.672c1.066,0,1.623,0.558,1.623,1.673v21.393
		c0,5.478,3.602,8.722,9.074,8.722c5.477,0,9.074-3.244,9.074-8.771v-21.343c0-1.115,0.607-1.673,1.672-1.673h1.674
		c1.064,0,1.674,0.558,1.674,1.673v21.444c0,7.958-5.68,13.279-14.043,13.279c-8.416,0-14.094-5.321-14.094-13.279V-107.014z"/>
	<path fill="#FFFFFF" d="M518.507-107.014c0-1.115,0.559-1.673,1.672-1.673h9.633c3.498,0,5.225,0.304,6.693,0.963
		c3.396,1.521,5.625,4.814,5.625,9.378c0,4.562-2.432,8.518-6.387,9.835v0.102c0,0,0.455,0.509,1.062,1.622l6.439,11.914
		c0.66,1.166,0.15,1.979-1.115,1.979h-2.027c-0.963,0-1.57-0.354-1.977-1.165l-6.996-13.08h-7.654v12.573
		c0,1.112-0.559,1.672-1.674,1.672h-1.623c-1.113,0-1.672-0.56-1.672-1.672V-107.014L518.507-107.014z M530.673-91.503
		c3.904,0,6.389-2.635,6.389-6.641c0-2.585-1.113-4.613-3.346-5.576c-0.914-0.406-1.979-0.608-4.258-0.608h-5.982v12.825H530.673z"
		/>
	<path fill="#FFFFFF" d="M569.248-78.321l0.861-1.219c0.607-0.811,1.316-0.912,2.281-0.305c1.268,0.913,4.006,2.89,7.807,2.89
		c3.803,0,6.287-2.025,6.287-5.119c0-7.906-17.236-6.135-17.236-17.285c0-6.033,5.068-9.938,11.607-9.938
		c4.26,0,7.605,1.673,8.973,2.737c0.863,0.606,0.965,1.368,0.51,2.281l-0.711,1.268c-0.607,1.063-1.42,0.963-2.281,0.456
		c-1.369-0.812-3.549-2.078-6.59-2.078c-3.701,0-6.438,1.927-6.438,5.019c0,7.706,17.236,5.629,17.236,17.137
		c0,5.627-4.209,10.188-11.355,10.188c-5.17,0-9.125-2.382-10.748-3.7C568.791-76.597,568.488-77.307,569.248-78.321z"/>
	<path fill="#FFFFFF" d="M619.582-107.014c0-1.115,0.559-1.673,1.674-1.673h17.439c1.115,0,1.674,0.558,1.674,1.673V-106
		c0,1.065-0.559,1.673-1.674,1.673H624.55v11.203h11.205c1.064,0,1.67,0.56,1.67,1.674v1.016c0,1.115-0.604,1.673-1.67,1.673H624.55
		v11.508h15.006c1.115,0,1.672,0.559,1.672,1.673v1.017c0,1.112-0.557,1.672-1.672,1.672h-18.301c-1.115,0-1.674-0.56-1.674-1.672
		V-107.014L619.582-107.014z"/>
</g>
</svg>
