<?xml version="1.0" encoding="utf-8"?>
<!-- Generator: Adobe Illustrator 16.0.3, SVG Export Plug-In . SVG Version: 6.00 Build 0)  -->
<!DOCTYPE svg PUBLIC "-//W3C//DTD SVG 1.1//EN" "http://www.w3.org/Graphics/SVG/1.1/DTD/svg11.dtd">
<svg version="1.1" id="Layer_1" xmlns="http://www.w3.org/2000/svg" xmlns:xlink="http://www.w3.org/1999/xlink" x="0px" y="0px"
	 width="702.918px" height="192.858px" viewBox="87.522 335.644 702.918 192.858"
	 enable-background="new 87.522 335.644 702.918 192.858" xml:space="preserve">
<title>logo-bitcoin-academy</title>
<g>
	<path fill="#F8B818" d="M153.108,389.311v-0.26c7.369-3.794,11.883-11.503,11.586-19.787c0.316-8.806-4.653-16.95-12.627-20.698
		c-5.113-2.091-10.625-3.024-16.142-2.733H132.5v-7.518c0-1.475-1.196-2.67-2.67-2.67h-7.68c-1.475,0-2.67,1.195-2.67,2.67v7.518
		h-8.621v-7.518c0-1.475-1.196-2.67-2.671-2.67h-7.679c-1.475,0-2.671,1.195-2.671,2.67v7.518h-7.862
		c-0.926,0-1.676,0.75-1.676,1.676v7.322c0,0.926,0.75,1.676,1.676,1.676h7.862v70.534l-7.417-0.004
		c-1.185-0.001-2.146,0.96-2.147,2.145c0,0.003,0,0.005,0,0.008l0.019,6.408c0.003,1.183,0.963,2.14,2.146,2.14h7.399v7.407
		c0,1.476,1.195,2.671,2.67,2.671l0,0h7.68c1.475,0,2.67-1.195,2.67-2.671l0,0v-7.407h8.621v7.407c0,1.475,1.195,2.67,2.67,2.67l0,0
		h7.68c1.475,0,2.67-1.195,2.67-2.67l0,0v-7.407h5.119c4.661,0.185,9.32-0.387,13.798-1.692
		c10.342-3.637,17.172-13.514,16.923-24.474C168.339,401.156,163.002,392.174,153.108,389.311z M135.926,356.507
		c3.267-0.154,6.524,0.47,9.502,1.822c4.045,2.65,6.337,7.284,5.988,12.106c0,8.332-5.207,14.059-13.538,14.059h-27.02v-27.987
		H135.926z M146.34,425.76c-2.627,0.948-5.41,1.39-8.202,1.302l-27.28-0.015v-31.87l28.321-0.009
		c9.633,0,15.881,6.249,15.881,15.752C155.061,417.819,151.676,423.547,146.34,425.76L146.34,425.76z"/>
	<path fill="#FFFFFF" d="M187.066,354.532v-4.247c-0.293-2.052,1.133-3.954,3.186-4.248c0.352-0.05,0.71-0.05,1.062,0h4.376
		c2.086-0.259,3.988,1.222,4.247,3.309c0.039,0.312,0.039,0.627,0,0.939v4.247c0.225,2.122-1.313,4.023-3.435,4.247
		c-0.27,0.029-0.542,0.029-0.812,0h-4.376c-2.086,0.26-3.988-1.22-4.248-3.306C187.028,355.16,187.028,354.844,187.066,354.532z
		 M187.195,376.025c-0.26-2.086,1.222-3.988,3.308-4.247c0.312-0.039,0.627-0.039,0.939,0h3.99c2.053-0.293,3.954,1.133,4.247,3.186
		c0.05,0.352,0.05,0.709,0,1.062v56.629c0.293,2.053-1.133,3.954-3.186,4.247c-0.352,0.05-0.709,0.05-1.062,0h-3.99
		c-2.086,0.259-3.988-1.222-4.247-3.308c-0.039-0.312-0.039-0.628,0-0.939V376.025z"/>
	<path fill="#FFFFFF" d="M220.786,382.589h-4.505c-2.07,0.211-3.92-1.296-4.132-3.367c-0.03-0.293-0.025-0.588,0.014-0.88v-1.673
		c-0.26-2.086,1.221-3.988,3.307-4.247c0.312-0.039,0.628-0.039,0.94,0h4.633v-14.286c-0.26-2.086,1.221-3.988,3.308-4.247
		c0.312-0.039,0.627-0.039,0.939,0h3.732c2.052-0.293,3.954,1.133,4.247,3.185c0.05,0.352,0.05,0.71,0,1.062v14.286h11.326
		c2.086-0.259,3.988,1.221,4.248,3.308c0.039,0.312,0.039,0.628,0,0.94v1.673c0.273,2.064-1.178,3.959-3.242,4.233
		c-0.291,0.039-0.585,0.043-0.877,0.013H233.27v28.958c0,12.355,7.593,14.285,12.355,14.672c3.346,0.258,4.504,1.287,4.504,4.247
		v2.703c0,2.96-1.673,4.247-5.148,4.247c-12.87,0-24.196-7.465-24.196-23.938V382.589z"/>
	<path fill="#FFFFFF" d="M291.571,370.234c7.742-0.167,15.314,2.281,21.493,6.95c1.766,1.033,2.359,3.3,1.327,5.066
		c-0.154,0.264-0.341,0.508-0.555,0.726l-1.287,1.93c-1.545,2.317-3.347,2.446-5.792,1.03c-4.213-3.118-9.302-4.829-14.543-4.891
		c-13.128,0-22.652,9.782-22.652,23.166c0,13.257,9.524,23.425,22.909,23.425c6.034-0.095,11.87-2.176,16.602-5.921
		c1.457-1.372,3.75-1.303,5.122,0.154c0.277,0.295,0.504,0.635,0.67,1.004l1.029,1.931c1.276,1.727,0.911,4.16-0.815,5.437
		c-0.11,0.081-0.225,0.156-0.343,0.226c-6.566,5.261-14.753,8.081-23.166,7.979c-20.464,0-34.75-14.542-34.75-34.106
		C256.821,385.034,271.236,370.234,291.571,370.234z"/>
	<path fill="#FFFFFF" d="M359.395,370.234c19.435,0,35.135,14.286,35.135,33.976c0,19.821-15.701,34.235-35.135,34.235
		s-35.007-14.414-35.007-34.235C324.388,384.52,339.961,370.234,359.395,370.234z M359.395,427.635
		c12.355,0,22.394-9.781,22.394-23.424c0.418-12.368-9.269-22.733-21.637-23.151c-12.368-0.418-22.733,9.269-23.151,21.637
		c-0.017,0.505-0.017,1.01,0,1.515c-0.469,12.46,9.252,22.94,21.712,23.408C358.939,427.628,359.167,427.633,359.395,427.635z"/>
	<path fill="#FFFFFF" d="M408.169,354.532v-4.247c-0.293-2.052,1.133-3.954,3.186-4.248c0.353-0.05,0.71-0.05,1.062,0h4.377
		c2.086-0.259,3.987,1.222,4.247,3.309c0.038,0.312,0.038,0.627,0,0.939v4.247c0.224,2.122-1.314,4.023-3.436,4.247
		c-0.271,0.028-0.542,0.028-0.812,0h-4.377c-2.086,0.26-3.987-1.221-4.247-3.307C408.131,355.159,408.131,354.844,408.169,354.532z
		 M408.298,376.025c-0.259-2.086,1.222-3.988,3.308-4.247c0.312-0.039,0.628-0.039,0.939,0h3.99
		c2.053-0.293,3.954,1.133,4.247,3.186c0.05,0.352,0.05,0.709,0,1.062v56.629c0.293,2.053-1.134,3.954-3.186,4.247
		c-0.353,0.05-0.71,0.05-1.062,0h-3.99c-2.086,0.259-3.987-1.222-4.247-3.308c-0.039-0.312-0.039-0.628,0-0.939V376.025z"/>
	<path fill="#FFFFFF" d="M438.8,376.025c-0.26-2.086,1.222-3.988,3.308-4.248c0.312-0.039,0.628-0.039,0.939,0h3.604
		c2.053-0.293,3.954,1.133,4.247,3.186c0.051,0.352,0.051,0.709,0,1.062v5.792c-0.013,1.253-0.142,2.503-0.386,3.732h0.257
		c4.553-9.481,14.194-15.458,24.711-15.315c15.315,0,22.266,8.366,22.266,24.968v37.453c0.293,2.053-1.134,3.954-3.186,4.247
		c-0.353,0.05-0.71,0.05-1.062,0h-3.99c-2.086,0.259-3.987-1.222-4.247-3.308c-0.039-0.312-0.039-0.628,0-0.939v-34.621
		c0-9.138-1.802-16.345-12.227-16.345c-12.612,0-21.75,10.553-21.75,24.067v26.898c0.293,2.053-1.134,3.954-3.187,4.247
		c-0.352,0.05-0.709,0.05-1.062,0h-3.99c-2.086,0.259-3.987-1.222-4.247-3.308c-0.039-0.312-0.039-0.628,0-0.939L438.8,376.025z"/>
	<path fill="#FFFFFF" d="M513.829,427.635c-0.293-2.053,1.133-3.954,3.186-4.248c0.353-0.05,0.71-0.05,1.062,0h4.891
		c2.053-0.293,3.954,1.134,4.247,3.187c0.051,0.352,0.051,0.71,0,1.062v5.02c0.293,2.052-1.133,3.953-3.186,4.247
		c-0.352,0.05-0.709,0.05-1.062,0h-4.891c-2.053,0.293-3.954-1.134-4.247-3.186c-0.05-0.353-0.05-0.71,0-1.062V427.635z"/>
	<path fill="#FFFFFF" d="M574.704,370.234c7.742-0.167,15.314,2.281,21.493,6.95c1.766,1.033,2.359,3.3,1.327,5.066
		c-0.154,0.264-0.341,0.508-0.556,0.726l-1.286,1.93c-1.545,2.317-3.347,2.446-5.792,1.03c-4.213-3.118-9.302-4.829-14.543-4.891
		c-13.129,0-22.651,9.782-22.651,23.166c0,13.257,9.523,23.425,22.909,23.425c6.034-0.095,11.869-2.176,16.602-5.921
		c1.457-1.372,3.75-1.303,5.122,0.154c0.278,0.295,0.504,0.635,0.67,1.004l1.029,1.931c1.276,1.727,0.911,4.16-0.816,5.437
		c-0.109,0.081-0.224,0.156-0.342,0.226c-6.566,5.261-14.754,8.081-23.166,7.979c-20.464,0-34.75-14.542-34.75-34.106
		C539.954,385.034,554.369,370.234,574.704,370.234z"/>
	<path fill="#FFFFFF" d="M642.527,370.234c19.435,0,35.135,14.286,35.135,33.976c0,19.821-15.701,34.235-35.135,34.235
		s-35.007-14.414-35.007-34.235C607.521,384.52,623.093,370.234,642.527,370.234z M642.527,427.635
		c12.355,0,22.394-9.781,22.394-23.424c0.418-12.368-9.27-22.733-21.638-23.151c-12.367-0.418-22.732,9.27-23.15,21.637
		c-0.017,0.505-0.017,1.01,0,1.514c-0.469,12.46,9.252,22.94,21.712,23.408C642.072,427.628,642.3,427.633,642.527,427.635z"/>
	<path fill="#FFFFFF" d="M691.431,376.025c-0.26-2.086,1.222-3.988,3.308-4.248c0.312-0.039,0.627-0.039,0.939,0h3.604
		c2.053-0.293,3.954,1.133,4.247,3.186c0.05,0.352,0.05,0.709,0,1.062v5.792c-0.013,1.253-0.142,2.503-0.386,3.732h0.257
		c4.074-8.956,12.824-14.872,22.652-15.315c10.939,0,17.246,5.019,19.562,14.8h0.258c4.308-8.853,13.194-14.562,23.037-14.8
		c14.801,0,21.493,8.366,21.493,24.968v37.453c0.293,2.053-1.133,3.954-3.186,4.247c-0.353,0.05-0.71,0.05-1.062,0h-3.99
		c-2.086,0.259-3.987-1.222-4.247-3.308c-0.039-0.312-0.039-0.628,0-0.939v-34.75c0-9.138-1.802-16.345-11.454-16.345
		c-12.098,0-19.306,12.484-19.306,24.968v26.127c0.309,2.028-1.086,3.923-3.114,4.231c-0.332,0.051-0.67,0.056-1.004,0.016h-4.118
		c-2.037,0.245-3.889-1.207-4.134-3.244c-0.041-0.333-0.035-0.671,0.015-1.003v-34.75c0-8.494-1.287-16.345-11.325-16.345
		c-12.355,0-19.562,12.871-19.562,24.968v26.127c0.293,2.053-1.134,3.954-3.187,4.247c-0.352,0.05-0.709,0.05-1.062,0h-3.989
		c-2.086,0.259-3.987-1.222-4.247-3.308c-0.039-0.312-0.039-0.628,0-0.939V376.025z"/>
	<path fill="#FFFFFF" d="M248.78,491.286c0.229-0.9,1.066-1.511,1.993-1.453h2.585c0.927-0.057,1.764,0.553,1.993,1.453
		l12.496,34.525c0.373,0.672,0.131,1.52-0.541,1.893c-0.278,0.154-0.6,0.209-0.914,0.155h-1.831
		c-0.928,0.056-1.764-0.555-1.993-1.456l-3.394-9.48h-14.327l-3.34,9.48c-0.194,0.9-1.021,1.521-1.938,1.456h-1.831
		c-0.533,0.064-1.062-0.149-1.4-0.566c-0.257-0.455-0.277-1.008-0.054-1.48L248.78,491.286z M257.774,512.509l-4.2-12.066
		c-0.181-0.502-0.352-1.05-0.512-1.644s-0.313-1.177-0.458-1.749c-0.145-0.646-0.307-1.312-0.485-1.994h-0.107
		c-0.215,0.684-0.396,1.348-0.539,1.994c-0.181,0.574-0.343,1.157-0.486,1.749c-0.132,0.556-0.294,1.104-0.484,1.644l-4.255,12.066
		H257.774z"/>
	<path fill="#FFFFFF" d="M295.045,508.63c-0.025-2.635,0.46-5.25,1.428-7.701c0.904-2.3,2.259-4.396,3.985-6.167
		c1.739-1.765,3.819-3.158,6.113-4.094c2.479-1.008,5.134-1.512,7.81-1.48c1.492-0.012,2.981,0.132,4.444,0.429
		c1.217,0.253,2.414,0.596,3.581,1.026c0.939,0.347,1.849,0.77,2.719,1.265c0.645,0.364,1.266,0.769,1.858,1.212
		c0.766,0.531,0.954,1.583,0.422,2.348c-0.03,0.044-0.063,0.087-0.099,0.128l-0.7,1.077c-0.416,0.777-1.383,1.069-2.159,0.653
		c-0.115-0.061-0.222-0.136-0.318-0.224c-0.396-0.25-0.897-0.555-1.508-0.914c-0.68-0.391-1.392-0.725-2.128-0.996
		c-0.877-0.326-1.777-0.587-2.692-0.781c-1.054-0.222-2.129-0.33-3.205-0.324c-2.032-0.037-4.05,0.348-5.925,1.131
		c-3.375,1.439-5.986,4.237-7.189,7.704c-0.638,1.816-0.957,3.73-0.942,5.656c-0.008,1.962,0.319,3.91,0.97,5.762
		c0.608,1.767,1.561,3.395,2.8,4.792c1.242,1.381,2.754,2.49,4.444,3.259c1.853,0.832,3.866,1.246,5.897,1.212
		c1.179,0.009,2.354-0.127,3.501-0.403c1.002-0.245,1.984-0.568,2.936-0.969c0.798-0.334,1.564-0.74,2.289-1.214
		c0.646-0.43,1.185-0.807,1.615-1.131c0.565-0.641,1.542-0.701,2.182-0.136c0.115,0.102,0.215,0.22,0.295,0.351l0.808,1.077
		c0.622,0.647,0.601,1.677-0.047,2.298c-0.069,0.065-0.143,0.125-0.222,0.179c-0.503,0.396-1.158,0.872-1.966,1.429
		c-0.919,0.617-1.893,1.149-2.908,1.589c-1.253,0.543-2.551,0.975-3.878,1.29c-1.562,0.372-3.162,0.553-4.767,0.539
		c-2.743,0.04-5.465-0.482-7.998-1.534c-2.316-0.973-4.406-2.412-6.141-4.228c-1.718-1.816-3.055-3.959-3.932-6.301
		C295.486,513.94,295.021,511.295,295.045,508.63z"/>
	<path fill="#FFFFFF" d="M368.348,491.286c0.229-0.9,1.065-1.511,1.993-1.453h2.585c0.927-0.057,1.764,0.553,1.993,1.453
		l12.495,34.525c0.373,0.672,0.132,1.52-0.54,1.893c-0.278,0.154-0.601,0.209-0.914,0.155h-1.831
		c-0.928,0.056-1.764-0.555-1.993-1.456l-3.394-9.48h-14.326l-3.34,9.48c-0.194,0.9-1.021,1.521-1.938,1.456h-1.831
		c-0.533,0.064-1.062-0.149-1.4-0.566c-0.258-0.455-0.277-1.008-0.054-1.48L368.348,491.286z M377.342,512.509l-4.2-12.066
		c-0.181-0.502-0.352-1.05-0.512-1.644c-0.161-0.594-0.313-1.177-0.458-1.749c-0.146-0.646-0.307-1.312-0.485-1.994h-0.108
		c-0.214,0.684-0.396,1.348-0.538,1.994c-0.181,0.574-0.343,1.157-0.485,1.749c-0.133,0.556-0.294,1.104-0.484,1.644l-4.255,12.066
		H377.342z"/>
	<path fill="#FFFFFF" d="M417.413,491.61c-0.123-0.858,0.474-1.654,1.333-1.777c0.147-0.021,0.297-0.021,0.444,0h10.825
		c2.692-0.034,5.371,0.394,7.919,1.265c2.268,0.783,4.342,2.042,6.084,3.69c1.725,1.672,3.059,3.704,3.904,5.952
		c1.833,5.221,1.833,10.909,0,16.13c-0.842,2.258-2.176,4.3-3.904,5.979c-1.746,1.65-3.818,2.917-6.084,3.717
		c-2.544,0.891-5.224,1.328-7.919,1.294H419.19c-0.858,0.122-1.655-0.475-1.777-1.333c-0.021-0.148-0.021-0.299,0-0.447V491.61z
		 M429.639,523.226c1.988,0.026,3.965-0.292,5.844-0.942c3.433-1.18,6.133-3.87,7.326-7.298c0.695-1.989,1.032-4.087,0.995-6.194
		c0.04-2.101-0.308-4.191-1.023-6.167c-0.624-1.689-1.606-3.224-2.882-4.497c-1.266-1.238-2.793-2.178-4.47-2.748
		c-1.864-0.63-3.822-0.939-5.79-0.916h-6.947v28.762L429.639,523.226z"/>
	<path fill="#FFFFFF" d="M480.913,491.61c-0.122-0.858,0.475-1.654,1.333-1.777c0.147-0.021,0.297-0.021,0.444,0h18.528
		c0.858-0.123,1.654,0.474,1.777,1.333c0.021,0.147,0.021,0.297,0,0.444v1.077c0.121,0.859-0.477,1.654-1.336,1.775
		c-0.146,0.021-0.295,0.021-0.441,0h-15.025v11.904h11.899c0.859-0.124,1.655,0.472,1.779,1.331
		c0.021,0.147,0.021,0.297,0.001,0.444v1.077c0.123,0.858-0.474,1.654-1.333,1.777c-0.148,0.021-0.299,0.021-0.447,0h-11.899v12.228
		h15.941c0.858-0.122,1.654,0.475,1.777,1.333c0.021,0.147,0.021,0.297,0,0.444v1.076c0.123,0.86-0.475,1.656-1.335,1.779
		c-0.146,0.021-0.296,0.021-0.442,0.001H482.69c-0.858,0.122-1.654-0.474-1.777-1.333c-0.021-0.148-0.021-0.299,0-0.447V491.61z"/>
	<path fill="#FFFFFF" d="M536.551,491.501c-0.019-0.909,0.704-1.66,1.613-1.679c0.073-0.001,0.146,0.003,0.219,0.011h2.424
		c0.912-0.065,1.744,0.52,1.992,1.4l8.24,19.174c0.215,0.537,0.432,1.103,0.646,1.696s0.412,1.142,0.592,1.642
		c0.215,0.613,0.432,1.205,0.646,1.779h0.107c0.18-0.574,0.377-1.167,0.592-1.779c0.18-0.5,0.377-1.047,0.594-1.642
		c0.215-0.594,0.432-1.159,0.646-1.696l8.24-19.174c0.248-0.881,1.08-1.466,1.992-1.4h2.424c0.903-0.103,1.719,0.546,1.822,1.449
		c0.008,0.072,0.012,0.146,0.01,0.219l2.801,34.525c0.183,0.82-0.335,1.633-1.154,1.815c-0.188,0.041-0.381,0.047-0.57,0.018h-1.723
		c-0.917,0.091-1.734-0.578-1.825-1.495c-0.008-0.076-0.01-0.153-0.007-0.23l-1.723-22.244c-0.072-0.572-0.118-1.186-0.136-1.83
		c-0.018-0.648-0.026-1.258-0.026-1.832c0-0.646,0.018-1.292,0.053-1.938h-0.105c-0.255,0.68-0.486,1.347-0.701,1.99
		c-0.215,0.576-0.44,1.196-0.674,1.858c-0.234,0.666-0.459,1.25-0.673,1.75l-7.002,15.729c-0.281,0.88-1.125,1.456-2.047,1.397
		h-1.776c-0.922,0.059-1.766-0.518-2.047-1.397l-7.002-15.729c-0.215-0.501-0.44-1.076-0.673-1.725
		c-0.235-0.645-0.458-1.271-0.676-1.885c-0.249-0.68-0.482-1.379-0.698-2.1h-0.107v3.854c0.002,0.62-0.033,1.24-0.108,1.856
		l-1.725,22.244c0.05,0.904-0.644,1.679-1.548,1.729c-0.075,0.004-0.151,0.003-0.228-0.004h-1.779
		c-0.829,0.133-1.607-0.433-1.74-1.261c-0.03-0.19-0.024-0.384,0.018-0.571L536.551,491.501z"/>
	<path fill="#FFFFFF" d="M611.847,511.755l-11.525-19.82c-0.343-0.428-0.415-1.011-0.188-1.51c0.333-0.442,0.879-0.669,1.427-0.592
		h2.154c0.869-0.038,1.677,0.45,2.047,1.238l6.408,11.256c0.287,0.538,0.565,1.095,0.835,1.67c0.27,0.574,0.512,1.096,0.728,1.562
		c0.25,0.539,0.502,1.059,0.754,1.562h0.107c0.215-0.504,0.449-1.023,0.701-1.562c0.215-0.467,0.465-0.987,0.754-1.562
		s0.574-1.131,0.861-1.67l6.355-11.256c0.354-0.802,1.173-1.296,2.047-1.238h2.154c0.548-0.076,1.094,0.15,1.427,0.592
		c0.226,0.499,0.152,1.082-0.188,1.51l-11.525,19.82v14.324c0.123,0.86-0.475,1.656-1.334,1.779
		c-0.147,0.021-0.297,0.021-0.443,0.001h-1.777c-0.858,0.122-1.654-0.475-1.777-1.333c-0.021-0.148-0.021-0.299,0-0.447V511.755z"/>
	
		<linearGradient id="SVGID_1_" gradientUnits="userSpaceOnUse" x1="-16.8691" y1="802.7637" x2="296.1313" y2="802.7637" gradientTransform="matrix(2.2442 0 0 -2.2442 125.3779 2267.1919)">
		<stop  offset="0" style="stop-color:#FFFFFF;stop-opacity:0"/>
		<stop  offset="0.4833" style="stop-color:#FFFFFF"/>
		<stop  offset="1" style="stop-color:#CCCCCC;stop-opacity:0"/>
	</linearGradient>
	<rect x="87.522" y="464.54" fill="url(#SVGID_1_)" width="702.421" height="2.244"/>
</g>
</svg>
